<svg width="57" height="35" viewBox="0 0 57 35" fill="none" xmlns="http://www.w3.org/2000/svg">
<path d="M21.276 13.5496C21.276 13.5054 21.276 13.4391 21.276 13.3949V13.1295C21.1412 8.00003 18.3114 4.83832 13.64 4.50667C13.5277 4.48456 13.4154 4.48455 13.3256 4.48455H8.07028V1.76503C8.07028 0.858525 7.32916 0.128906 6.40835 0.128906C5.48755 0.128906 4.74641 0.858525 4.74641 1.76503V4.48455H1.82679C0.905982 4.48455 0.164856 5.21418 0.164856 6.12069C0.164856 7.02719 0.905982 7.75683 1.82679 7.75683H4.74641V10.4763C4.74641 11.3829 5.48755 12.1125 6.40835 12.1125C7.32916 12.1125 8.07028 11.3829 8.07028 10.4763V7.75683H12.8091C16.1779 7.75683 17.9072 9.68038 17.9521 13.4391V24.4277H21.2984V13.5938C21.276 13.5938 21.276 13.5717 21.276 13.5496Z" fill="#2B2B60" stroke="#2B2B60"/>
<path d="M55.2258 26.0673C54.305 26.0673 53.5638 25.3377 53.5638 24.4312V6.12417C53.5638 5.21766 54.305 4.48804 55.2258 4.48804C56.1466 4.48804 56.8877 5.21766 56.8877 6.12417V24.4312C56.8877 25.3377 56.1466 26.0673 55.2258 26.0673Z" fill="#73B298" stroke="#73B298"/>
<path d="M37.4161 26.0673C36.4953 26.0673 35.7542 25.3377 35.7542 24.4312V6.12417C35.7542 5.21766 36.4953 4.48804 37.4161 4.48804C38.3369 4.48804 39.078 5.21766 39.078 6.12417V24.4312C39.1005 25.3377 38.3369 26.0673 37.4161 26.0673Z" fill="#73B298" stroke="#73B298"/>
<path d="M46.3097 14.0175C40.4705 14.0175 35.7317 18.6827 35.7317 24.4312C35.7541 28.3668 32.5201 31.5728 28.5449 31.5949H28.5C24.5248 31.5949 21.2908 28.4331 21.2683 24.4976V24.4312C21.2683 24.4312 21.2683 24.4312 21.2683 24.4091C21.2683 18.6606 16.5296 13.9954 10.6903 13.9954C4.85107 14.0175 0.112305 18.6827 0.112305 24.4312C0.112305 25.3378 0.853439 26.0674 1.77424 26.0674C2.69505 26.0674 3.43618 25.3378 3.43618 24.4312C3.43618 20.4957 6.67022 17.3119 10.6679 17.3119C14.6655 17.3119 17.8995 20.4957 17.8995 24.4312V24.5197C17.9445 30.2462 22.6608 34.8671 28.4776 34.8892H28.5225C34.3617 34.845 39.0556 30.1798 39.0556 24.4312C39.0556 20.4957 42.2896 17.3119 46.2872 17.3119C50.2849 17.3119 53.5189 20.4957 53.5189 24.4312C53.5189 25.3378 54.2601 26.0674 55.1809 26.0674C56.1017 26.0674 56.8428 25.3378 56.8428 24.4312C56.8877 18.7048 52.1489 14.0396 46.3097 14.0175Z" fill="#73B298" stroke="#73B298"/>
<path d="M55.2094 22.7915C54.2886 22.7915 53.5474 23.5211 53.5474 24.4276C53.5474 28.3632 50.3134 31.547 46.3158 31.547C42.3181 31.547 39.0841 28.3632 39.0841 24.4276C39.0392 18.7233 34.3453 14.1244 28.551 14.0581H28.5061C22.6893 14.0581 17.973 18.7012 17.928 24.4276C17.928 28.3632 14.694 31.547 10.6964 31.547C6.69873 31.547 3.46468 28.3632 3.46468 24.4276C3.46468 23.5211 2.72356 22.7915 1.80275 22.7915C0.881948 22.7915 0.140808 23.5211 0.140808 24.4276C0.140808 30.1762 4.87959 34.8414 10.7188 34.8414C16.5581 34.8414 21.2744 30.1762 21.2968 24.4498C21.3193 20.5363 24.5533 17.3746 28.5285 17.3746H28.5734C32.5262 17.3967 35.7377 20.5584 35.7602 24.4498C35.7827 30.1983 40.499 34.8414 46.3382 34.8414C52.1775 34.8414 56.9162 30.1762 56.9162 24.4276C56.8938 23.5211 56.1526 22.7915 55.2094 22.7915C55.2318 22.7915 55.2318 22.7915 55.2094 22.7915Z" fill="#2B2B60"/>
<path d="M55.2094 22.7915C54.2886 22.7915 53.5474 23.5211 53.5474 24.4276C53.5474 28.3632 50.3134 31.547 46.3158 31.547C42.3181 31.547 39.0841 28.3632 39.0841 24.4276C39.0392 18.7233 34.3453 14.1244 28.551 14.0581H28.5061C22.6893 14.0581 17.973 18.7012 17.928 24.4276C17.928 28.3632 14.694 31.547 10.6964 31.547C6.69873 31.547 3.46468 28.3632 3.46468 24.4276C3.46468 23.5211 2.72356 22.7915 1.80275 22.7915C0.881948 22.7915 0.140808 23.5211 0.140808 24.4276C0.140808 30.1762 4.87959 34.8414 10.7188 34.8414C16.5581 34.8414 21.2744 30.1762 21.2968 24.4498C21.3193 20.5363 24.5533 17.3746 28.5285 17.3746H28.5734C32.5262 17.3967 35.7377 20.5584 35.7602 24.4498C35.7827 30.1983 40.499 34.8414 46.3382 34.8414C52.1775 34.8414 56.9162 30.1762 56.9162 24.4276C56.8938 23.5211 56.1526 22.7915 55.2094 22.7915ZM55.2094 22.7915C55.2318 22.7915 55.2318 22.7915 55.2094 22.7915Z" stroke="#2B2B60"/>
</svg>
